# xmcd
#
# Track frame offsets:
#	183
#	9718
#	24790
#	35445
#	48503
#	61275
#	72085
#	82558
#	97188
#	110975
#	119780
#	131170
#	140230
#	147155
#	158835
#	169340
#	180505
#
# Disc length: 2560
#
# Revision: 2
# Processed by: cddbd v1.5.1PL0 Copyright (c) Steve Scherf et al.
# Submitted via: CDex 1.40Release
# Normalized: r1:TDELIM( - )
#
DISCID=f409fe11
DTITLE=Willie Nelson - Waylon Jennings - 16 Great Hits
DYEAR=1900
DGENRE=Country
TTITLE0=Willie Nelson - I'm Building Heartaches
TTITLE1=Willie Nelson - Face Of A Fighter
TTITLE2=Waylon Jennings - Burning Memories
TTITLE3=Willie Nelson - Everything But You
TTITLE4=Willie Nelson - She's Not For You
TTITLE5=Waylon Jennings - Dream Baby
TTITLE6=Waylon Jennings - White Lightnin'
TTITLE7=Willie Nelson - What Can You Do To Me Now
TTITLE8=Willie Nelson - A Moment Isn't Very Long
TTITLE9=Waylon Jennings - Love's Gonna Live Here
TTITLE10=Waylon Jennings - Sally Was A Good Old Girl
TTITLE11=Willie Nelson - Why Are You Picking On Me
TTITLE12=Waylon Jennings - It's So Easy
TTITLE13=Willie Nelson - Some Other Time
TTITLE14=Willie Nelson - Broken Promises
TTITLE15=Waylon Jennings - Big Mamou
TTITLE16=Willie Nelson - Is There Something On Your Mind
EXTD=ID3G: 2
EXTT0=
EXTT1=
EXTT2=
EXTT3=
EXTT4=
EXTT5=
EXTT6=
EXTT7=
EXTT8=
EXTT9=
EXTT10=
EXTT11=
EXTT12=
EXTT13=
EXTT14=
EXTT15=
EXTT16=
PLAYORDER=
